<svg width="800" height="600" xmlns="http://www.w3.org/2000/svg">
  <!-- Background -->
  <rect width="800" height="600" fill="white"/>

  <!-- Title -->
  <text x="400" y="40" text-anchor="middle" font-size="24" font-weight="bold" fill="black">OpenClaw Architecture</text>

  <!-- Gateway -->
  <rect x="100" y="80" width="600" height="60" fill="#e3f2fd" stroke="#1976d2" stroke-width="2"/>
  <text x="400" y="115" text-anchor="middle" font-size="16" fill="#1976d2" font-weight="bold">Gateway (Central Daemon)</text>

  <!-- Channels -->
  <rect x="50" y="200" width="190" height="200" fill="#f3e5f5" stroke="#7b1fa2" stroke-width="2"/>
  <text x="145" y="230" text-anchor="middle" font-size="16" fill="#7b1fa2" font-weight="bold">Channels</text>
  <text x="145" y="260" text-anchor="middle" font-size="12" fill="black">Discord</text>
  <text x="145" y="280" text-anchor="middle" font-size="12" fill="black">Slack</text>
  <text x="145" y="300" text-anchor="middle" font-size="12" fill="black">Feishu</text>
  <text x="145" y="320" text-anchor="middle" font-size="12" fill="black">iMessage</text>
  <text x="145" y="340" text-anchor="middle" font-size="12" fill="black">Telegram</text>

  <!-- Agents -->
  <rect x="280" y="200" width="250" height="200" fill="#e8f5e9" stroke="#388e3c" stroke-width="2"/>
  <text x="405" y="220" text-anchor="middle" font-size="14" fill="#388e3c" font-weight="bold">Agents</text>
  <text x="405" y="242" text-anchor="middle" font-size="10" fill="black">• AGENTS.md</text>
  <text x="405" y="258" text-anchor="middle" font-size="10" fill="black">• SOUL.md</text>
  <text x="405" y="274" text-anchor="middle" font-size="10" fill="black">• IDENTITY.md</text>
  <text x="405" y="290" text-anchor="middle" font-size="10" fill="black">• USER.md</text>
  <text x="405" y="306" text-anchor="middle" font-size="10" fill="black">• TOOLS.md</text>
  <text x="405" y="322" text-anchor="middle" font-size="10" fill="black">• HEARTBEAT.md</text>
  <text x="405" y="348" text-anchor="middle" font-size="9" fill="#388e3c">...</text>

  <!-- Context Engines -->
  <rect x="570" y="200" width="180" height="200" fill="#fff3e0" stroke="#f57c00" stroke-width="2"/>
  <text x="660" y="230" text-anchor="middle" font-size="16" fill="#f57c00" font-weight="bold">Context Engines</text>
  <text x="660" y="260" text-anchor="middle" font-size="12" fill="black">Default</text>
  <text x="660" y="280" text-anchor="middle" font-size="12" fill="black">Custom</text>
  <text x="660" y="300" text-anchor="middle" font-size="11" fill="black">(Semantic Compression)</text>
  <text x="660" y="335" text-anchor="middle" font-size="11" fill="#f57c00" font-weight="bold">NEW!</text>

  <!-- LLM Models -->
  <rect x="200" y="480" width="400" height="60" fill="#fce4ec" stroke="#c2185b" stroke-width="2"/>
  <text x="400" y="515" text-anchor="middle" font-size="16" fill="#c2185b" font-weight="bold">LLM Models</text>

  <!-- Connection lines -->
  <line x1="400" y1="140" x2="400" y2="180" stroke="gray" stroke-width="2"/>
  <line x1="145" y1="400" x2="145" y2="440" stroke="gray" stroke-width="2"/>
  <line x1="405" y1="400" x2="405" y2="440" stroke="gray" stroke-width="2"/>
  <line x1="660" y1="400" x2="660" y2="440" stroke="gray" stroke-width="2"/>
  <line x1="145" y1="440" x2="400" y2="440" stroke="gray" stroke-width="2"/>
  <line x1="405" y1="440" x2="400" y2="440" stroke="gray" stroke-width="2"/>
  <line x1="660" y1="440" x2="400" y2="440" stroke="gray" stroke-width="2"/>
  <line x1="400" y1="440" x2="400" y2="480" stroke="gray" stroke-width="2"/>
</svg>
